# xmcd
#
# Track frame offsets: 
#        150
#        21185
#        39167
#        57930
#        79925
#        96597
#        115592
#        135047
#        154637
#        175485
#        193737
#        216165
#        234727
#        256225
#
# Disc length: 3644 seconds
#
# Revision: 0
# Processed by: cddbd v1.5.2PL0 Copyright (c) Steve Scherf et al.
# Submitted via: ExactAudioCopyFreeDBPlugin 1.0
#
DISCID=b60e3a0e
DTITLE=คาราบาว - ตํานานรักทรหด
DYEAR=1900
DGENRE=Thai
TTITLE0=ดอกไม้มวลชน
TTITLE1=รักนอกใจ
TTITLE2=เหวแห่งความรัก
TTITLE3=สัญญาหน้าฝน
TTITLE4=รักทรหด
TTITLE5=บาปบริสุทธิ์
TTITLE6=คนขี้โกง
TTITLE7=รักต้องสู้
TTITLE8=รักนี้มีแต่เธอ
TTITLE9=หัวใจบ้าบิ่น
TTITLE10=ลมพัดใจเพ
TTITLE11=ฝากจันทร์
TTITLE12=ผีเสื้อราตรี
TTITLE13=โลกแห่งความรัก
EXTD=
EXTT0=
EXTT1=
EXTT2=
EXTT3=
EXTT4=
EXTT5=
EXTT6=
EXTT7=
EXTT8=
EXTT9=
EXTT10=
EXTT11=
EXTT12=
EXTT13=
PLAYORDER=
